<svg viewBox="617.602 205.779 42.764 42.764" width="42.764" height="42.764">
  <path fill-rule="evenodd" clip-rule="evenodd" d="M 652.104 225.257 L 640.858 225.257 L 640.858 213.827 C 640.858 212.36 639.297 211.444 638.047 212.177 C 637.468 212.516 637.11 213.145 637.11 213.827 L 637.11 225.257 L 625.864 225.257 C 624.421 225.257 623.52 226.843 624.241 228.114 C 624.577 228.703 625.195 229.066 625.864 229.066 L 637.11 229.066 L 637.11 240.496 C 637.11 241.961 638.673 242.877 639.921 242.146 C 640.502 241.805 640.858 241.176 640.858 240.496 L 640.858 229.066 L 652.104 229.066 C 653.547 229.066 654.448 227.478 653.727 226.209 C 653.393 225.618 652.773 225.257 652.104 225.257 Z" fill="#BFCCD6" style="" transform="matrix(0.707107, 0.707107, -0.707107, 0.707107, 347.781128, -385.296021)"></path>
</svg>