<svg viewBox="4.749 0 52.803 29.066" width="28" height="20" fill='#fff'>
  <path d="M 18.374 0 L 4.749 12 L 5.6 18 L 18.374 29 L 31.148 18 L 32 12 L 18.374 0 Z M 30.041 12.8 L 29.616 16 L 26.635 14.3 L 22.036 5.3 L 30.041 12.8 Z M 17.523 19.6 L 17.523 25.7 L 8.07 17.7 L 10.71 16.1 L 17.523 19.6 Z M 19.226 19.6 L 26.039 16.1 L 28.679 17.7 L 19.226 25.8 L 19.226 19.6 Z M 24.847 14.5 L 18.374 17.9 L 11.902 14.5 L 18.374 2.9 L 24.847 14.5 Z M 6.707 12.8 L 14.712 5.3 L 10.114 14.3 L 7.133 16 L 6.707 12.8 Z" style=""></path>
  <path d="M 18.374 0 L 4.749 12 L 5.6 18 L 18.374 29 L 31.148 18 L 32 12 L 18.374 0 Z M 30.041 12.8 L 29.616 16 L 26.635 14.3 L 22.036 5.3 L 30.041 12.8 Z M 17.523 19.6 L 17.523 25.7 L 8.07 17.7 L 10.71 16.1 L 17.523 19.6 Z M 19.226 19.6 L 26.039 16.1 L 28.679 17.7 L 19.226 25.8 L 19.226 19.6 Z M 24.847 14.5 L 18.374 17.9 L 11.902 14.5 L 18.374 2.9 L 24.847 14.5 Z M 6.707 12.8 L 14.712 5.3 L 10.114 14.3 L 7.133 16 L 6.707 12.8 Z" style=""></path>
  <path d="M 43.926 0.066 L 30.301 12.066 L 31.152 18.066 L 43.926 29.066 L 56.7 18.066 L 57.552 12.066 L 43.926 0.066 Z M 55.593 12.866 L 55.168 16.066 L 52.187 14.366 L 47.588 5.366 L 55.593 12.866 Z M 43.075 19.666 L 43.075 25.766 L 33.622 17.766 L 36.262 16.166 L 43.075 19.666 Z M 44.778 19.666 L 51.591 16.166 L 54.231 17.766 L 44.778 25.866 L 44.778 19.666 Z M 50.399 14.566 L 43.926 17.966 L 37.454 14.566 L 43.926 2.966 L 50.399 14.566 Z M 32.259 12.866 L 40.264 5.366 L 35.666 14.366 L 32.685 16.066 L 32.259 12.866 Z" style=""></path>
</svg>